<mxfile host="app.diagrams.net" agent="Mozilla/5.0 (Windows NT 10.0; Win64; x64) AppleWebKit/537.36 (KHTML, like Gecko) Chrome/135.0.0.0 Safari/537.36" version="26.2.9">
  <diagram id="activity-diagram" name="Activity Diagram">
    <mxGraphModel dx="1044" dy="546" grid="0" gridSize="10" guides="1" tooltips="1" connect="1" arrows="1" fold="1" page="0" pageScale="1" pageWidth="1100" pageHeight="850" math="0" shadow="0">
      <root>
        <mxCell id="0" />
        <mxCell id="1" parent="0" />
        <mxCell id="swimlane1" value="Người dùng" style="swimlane;startSize=20;horizontal=1;" parent="1" vertex="1">
          <mxGeometry x="40" y="40" width="200" height="720" as="geometry" />
        </mxCell>
        <mxCell id="2" value="" style="ellipse;fillColor=#000000;strokeColor=none;" parent="swimlane1" vertex="1">
          <mxGeometry x="85" y="40" width="30" height="30" as="geometry" />
        </mxCell>
        <mxCell id="3" value="Nhập thông tin&#xa;đăng nhập" style="rounded=1;whiteSpace=wrap;html=1;" parent="swimlane1" vertex="1">
          <mxGeometry x="40" y="120" width="120" height="60" as="geometry" />
        </mxCell>
        <mxCell id="end" value="" style="ellipse;html=1;shape=endState;fillColor=#000000;strokeColor=#000000;" parent="swimlane1" vertex="1">
          <mxGeometry x="85" y="592" width="30" height="30" as="geometry" />
        </mxCell>
        <mxCell id="swimlane2" value="Trang đăng nhập" style="swimlane;startSize=20;horizontal=1;" parent="1" vertex="1">
          <mxGeometry x="240" y="40" width="200" height="720" as="geometry" />
        </mxCell>
        <mxCell id="4" value="Hiển thị form&#xa;đăng nhập" style="rounded=1;whiteSpace=wrap;html=1;" parent="swimlane2" vertex="1">
          <mxGeometry x="40" y="120" width="120" height="60" as="geometry" />
        </mxCell>
        <mxCell id="5" value="Gửi form" style="rounded=1;whiteSpace=wrap;html=1;" parent="swimlane2" vertex="1">
          <mxGeometry x="40" y="240" width="120" height="60" as="geometry" />
        </mxCell>
        <mxCell id="9" value="Chuyển hướng về&#xa;trang chủ" style="rounded=1;whiteSpace=wrap;html=1;" parent="swimlane2" vertex="1">
          <mxGeometry x="14" y="370" width="120" height="60" as="geometry" />
        </mxCell>
        <mxCell id="10" value="Hiển thị thông báo&#xa;lỗi" style="rounded=1;whiteSpace=wrap;html=1;" parent="swimlane2" vertex="1">
          <mxGeometry x="38" y="578" width="120" height="60" as="geometry" />
        </mxCell>
        <mxCell id="swimlane3" value="Dịch vụ xác thực" style="swimlane;startSize=20;horizontal=1;" parent="1" vertex="1">
          <mxGeometry x="440" y="40" width="264" height="720" as="geometry" />
        </mxCell>
        <mxCell id="6" value="Kiểm tra&#xa;thông tin" style="rhombus;whiteSpace=wrap;html=1;" parent="swimlane3" vertex="1">
          <mxGeometry x="125" y="230" width="80" height="80" as="geometry" />
        </mxCell>
        <mxCell id="7" value="Tạo token&#xa;xác thực" style="rounded=1;whiteSpace=wrap;html=1;" parent="swimlane3" vertex="1">
          <mxGeometry x="12" y="365" width="120" height="60" as="geometry" />
        </mxCell>
        <mxCell id="swimlane4" value="Cơ sở dữ liệu" style="swimlane;startSize=20;horizontal=1;" parent="1" vertex="1">
          <mxGeometry x="704" y="40" width="200" height="720" as="geometry" />
        </mxCell>
        <mxCell id="8" value="Kiểm tra&#xa;tài khoản" style="rounded=1;whiteSpace=wrap;html=1;" parent="swimlane4" vertex="1">
          <mxGeometry x="40" y="240" width="120" height="60" as="geometry" />
        </mxCell>
        <mxCell id="arrow1" value="" style="endArrow=classic;html=1;" parent="1" source="2" target="3" edge="1">
          <mxGeometry relative="1" as="geometry" />
        </mxCell>
        <mxCell id="arrow2" value="Nhập dữ liệu" style="endArrow=classic;html=1;" parent="1" source="3" target="4" edge="1">
          <mxGeometry relative="1" as="geometry" />
        </mxCell>
        <mxCell id="arrow3" value="Nhấn đăng nhập" style="endArrow=classic;html=1;" parent="1" source="4" target="5" edge="1">
          <mxGeometry relative="1" as="geometry" />
        </mxCell>
        <mxCell id="arrow4" value="Gửi yêu cầu" style="endArrow=classic;html=1;" parent="1" source="5" target="6" edge="1">
          <mxGeometry relative="1" as="geometry" />
        </mxCell>
        <mxCell id="arrow5" value="Query" style="endArrow=classic;html=1;" parent="1" source="6" target="8" edge="1">
          <mxGeometry relative="1" as="geometry" />
        </mxCell>
        <mxCell id="arrow6" value="Trả kết quả" style="endArrow=classic;html=1;dashed=1;" parent="1" source="8" target="6" edge="1">
          <mxGeometry relative="1" as="geometry" />
        </mxCell>
        <mxCell id="arrow7" value="Hợp lệ" style="endArrow=classic;html=1;edgeStyle=orthogonalEdgeStyle;elbow=vertical;jumpSize=0;rounded=0;curved=0;" parent="1" source="6" target="7" edge="1">
          <mxGeometry relative="1" as="geometry" />
        </mxCell>
        <mxCell id="arrow8" value="Không hợp lệ" style="endArrow=classic;html=1;edgeStyle=elbowEdgeStyle;elbow=vertical;rounded=0;curved=0;" parent="1" source="6" target="10" edge="1">
          <mxGeometry relative="1" as="geometry">
            <Array as="points">
              <mxPoint x="441" y="563" />
            </Array>
          </mxGeometry>
        </mxCell>
        <mxCell id="arrow9" value="Thành công" style="endArrow=classic;html=1;" parent="1" source="7" target="9" edge="1">
          <mxGeometry relative="1" as="geometry" />
        </mxCell>
        <mxCell id="arrow10" value="" style="endArrow=classic;html=1;edgeStyle=orthogonalEdgeStyle;rounded=0;curved=0;" parent="1" source="9" target="end" edge="1">
          <mxGeometry relative="1" as="geometry" />
        </mxCell>
        <mxCell id="arrow11" value="" style="endArrow=classic;html=1;" parent="1" source="10" target="end" edge="1">
          <mxGeometry relative="1" as="geometry" />
        </mxCell>
      </root>
    </mxGraphModel>
  </diagram>
</mxfile>
